<mxfile host="app.diagrams.net" modified="2023-11-04T19:18:00.168Z" agent="Mozilla/5.0 (Windows NT 10.0; Win64; x64) AppleWebKit/537.36 (KHTML, like Gecko) Chrome/116.0.0.0 Safari/537.36 OPR/102.0.0.0" etag="bcG7o_AJ34YuodvF7c5q" version="22.0.8" type="device">
  <diagram name="Page-1" id="DL1uh-NfwP928c6Yhs3l">
    <mxGraphModel dx="1191" dy="1106" grid="1" gridSize="10" guides="1" tooltips="1" connect="1" arrows="1" fold="1" page="1" pageScale="1" pageWidth="827" pageHeight="1169" math="0" shadow="0">
      <root>
        <mxCell id="0" />
        <mxCell id="1" parent="0" />
        <mxCell id="MKn4RhPB5chB1389y2Vw-1" value="Admin User" style="shape=umlActor;verticalLabelPosition=bottom;verticalAlign=top;html=1;outlineConnect=0;" vertex="1" parent="1">
          <mxGeometry x="60" y="165" width="30" height="60" as="geometry" />
        </mxCell>
        <mxCell id="MKn4RhPB5chB1389y2Vw-8" value="Database" style="shape=umlActor;verticalLabelPosition=bottom;verticalAlign=top;html=1;outlineConnect=0;" vertex="1" parent="1">
          <mxGeometry x="730" y="170" width="30" height="60" as="geometry" />
        </mxCell>
        <mxCell id="MKn4RhPB5chB1389y2Vw-17" value="System" style="swimlane;whiteSpace=wrap;html=1;" vertex="1" parent="1">
          <mxGeometry x="140" y="80" width="560" height="330" as="geometry" />
        </mxCell>
        <mxCell id="MKn4RhPB5chB1389y2Vw-20" value="Input Validation" style="ellipse;whiteSpace=wrap;html=1;" vertex="1" parent="MKn4RhPB5chB1389y2Vw-17">
          <mxGeometry x="390" y="80" width="120" height="80" as="geometry" />
        </mxCell>
        <mxCell id="MKn4RhPB5chB1389y2Vw-29" value="&amp;lt;&amp;lt;Includes&amp;gt;&amp;gt;" style="edgeStyle=none;rounded=0;orthogonalLoop=1;jettySize=auto;html=1;exitX=1;exitY=0.5;exitDx=0;exitDy=0;" edge="1" parent="MKn4RhPB5chB1389y2Vw-17" source="MKn4RhPB5chB1389y2Vw-21" target="MKn4RhPB5chB1389y2Vw-20">
          <mxGeometry relative="1" as="geometry" />
        </mxCell>
        <mxCell id="MKn4RhPB5chB1389y2Vw-21" value="Add Asset" style="ellipse;whiteSpace=wrap;html=1;" vertex="1" parent="MKn4RhPB5chB1389y2Vw-17">
          <mxGeometry x="100" y="80" width="120" height="80" as="geometry" />
        </mxCell>
        <mxCell id="MKn4RhPB5chB1389y2Vw-31" value="Link Assets" style="ellipse;whiteSpace=wrap;html=1;" vertex="1" parent="MKn4RhPB5chB1389y2Vw-17">
          <mxGeometry x="170" y="230" width="120" height="60" as="geometry" />
        </mxCell>
        <mxCell id="MKn4RhPB5chB1389y2Vw-33" value="" style="endArrow=classic;html=1;rounded=0;entryX=0;entryY=0.5;entryDx=0;entryDy=0;" edge="1" parent="MKn4RhPB5chB1389y2Vw-17" target="MKn4RhPB5chB1389y2Vw-31">
          <mxGeometry width="50" height="50" relative="1" as="geometry">
            <mxPoint x="60" y="120" as="sourcePoint" />
            <mxPoint x="100" y="165" as="targetPoint" />
            <Array as="points">
              <mxPoint x="60" y="260" />
            </Array>
          </mxGeometry>
        </mxCell>
        <mxCell id="MKn4RhPB5chB1389y2Vw-34" value="" style="endArrow=none;html=1;rounded=0;exitX=0.5;exitY=0;exitDx=0;exitDy=0;" edge="1" parent="MKn4RhPB5chB1389y2Vw-17" source="MKn4RhPB5chB1389y2Vw-31">
          <mxGeometry width="50" height="50" relative="1" as="geometry">
            <mxPoint x="310" y="170" as="sourcePoint" />
            <mxPoint x="360" y="120" as="targetPoint" />
            <Array as="points">
              <mxPoint x="230" y="200" />
              <mxPoint x="360" y="200" />
            </Array>
          </mxGeometry>
        </mxCell>
        <mxCell id="MKn4RhPB5chB1389y2Vw-30" value="" style="endArrow=classic;html=1;rounded=0;" edge="1" parent="1">
          <mxGeometry width="50" height="50" relative="1" as="geometry">
            <mxPoint x="90" y="200" as="sourcePoint" />
            <mxPoint x="240" y="200" as="targetPoint" />
          </mxGeometry>
        </mxCell>
        <mxCell id="MKn4RhPB5chB1389y2Vw-28" value="" style="endArrow=none;html=1;rounded=0;exitX=1;exitY=0.5;exitDx=0;exitDy=0;" edge="1" parent="1" source="MKn4RhPB5chB1389y2Vw-20" target="MKn4RhPB5chB1389y2Vw-8">
          <mxGeometry width="50" height="50" relative="1" as="geometry">
            <mxPoint x="570" y="210" as="sourcePoint" />
            <mxPoint x="620" y="160" as="targetPoint" />
          </mxGeometry>
        </mxCell>
      </root>
    </mxGraphModel>
  </diagram>
</mxfile>
